<mxfile host="Electron" modified="2024-02-09T03:10:02.903Z" agent="Mozilla/5.0 (Windows NT 10.0; Win64; x64) AppleWebKit/537.36 (KHTML, like Gecko) draw.io/22.0.3 Chrome/114.0.5735.289 Electron/25.8.4 Safari/537.36" etag="KRDR4K1rdYV3muMyYm8g" version="22.0.3" type="device" pages="2">
  <diagram name="Page-1" id="msv3KL9XtUimXSDXFDJa">
    <mxGraphModel dx="988" dy="578" grid="1" gridSize="10" guides="1" tooltips="1" connect="1" arrows="1" fold="1" page="1" pageScale="1" pageWidth="827" pageHeight="583" math="0" shadow="0">
      <root>
        <mxCell id="0" />
        <mxCell id="1" parent="0" />
        <mxCell id="SlRn_WwHkfLtaekDXYRm-5" style="edgeStyle=orthogonalEdgeStyle;rounded=0;sketch=1;hachureGap=4;jiggle=2;curveFitting=1;orthogonalLoop=1;jettySize=auto;html=1;fontFamily=Architects Daughter;fontSource=https%3A%2F%2Ffonts.googleapis.com%2Fcss%3Ffamily%3DArchitects%2BDaughter;fontSize=16;" parent="1" source="SlRn_WwHkfLtaekDXYRm-1" target="SlRn_WwHkfLtaekDXYRm-2" edge="1">
          <mxGeometry relative="1" as="geometry" />
        </mxCell>
        <mxCell id="SlRn_WwHkfLtaekDXYRm-1" value="diagram.drawio" style="rounded=0;whiteSpace=wrap;html=1;sketch=1;hachureGap=4;jiggle=2;curveFitting=1;fontFamily=Architects Daughter;fontSize=20;fontSource=https%3A%2F%2Ffonts.googleapis.com%2Fcss%3Ffamily%3DArchitects%2BDaughter;fontStyle=0" parent="1" vertex="1">
          <mxGeometry x="20" y="40" width="170" height="100" as="geometry" />
        </mxCell>
        <mxCell id="wojl5qBEsSdMTTRM6jn8-1" style="edgeStyle=orthogonalEdgeStyle;rounded=0;sketch=1;hachureGap=4;jiggle=2;curveFitting=1;orthogonalLoop=1;jettySize=auto;html=1;fontFamily=Architects Daughter;fontSource=https%3A%2F%2Ffonts.googleapis.com%2Fcss%3Ffamily%3DArchitects%2BDaughter;fontSize=16;" edge="1" parent="1" source="SlRn_WwHkfLtaekDXYRm-2" target="NlOz6iEBPjQe4jbIREbf-1">
          <mxGeometry relative="1" as="geometry" />
        </mxCell>
        <mxCell id="SlRn_WwHkfLtaekDXYRm-2" value="chatu-add&lt;br&gt;" style="ellipse;whiteSpace=wrap;html=1;sketch=1;hachureGap=4;jiggle=2;curveFitting=1;fontFamily=Architects Daughter;fontSource=https%3A%2F%2Ffonts.googleapis.com%2Fcss%3Ffamily%3DArchitects%2BDaughter;fontSize=20;" parent="1" vertex="1">
          <mxGeometry x="240" y="38.75" width="160" height="102.5" as="geometry" />
        </mxCell>
        <mxCell id="SlRn_WwHkfLtaekDXYRm-10" style="edgeStyle=orthogonalEdgeStyle;rounded=0;sketch=1;hachureGap=4;jiggle=2;curveFitting=1;orthogonalLoop=1;jettySize=auto;html=1;entryX=0;entryY=0.5;entryDx=0;entryDy=0;fontFamily=Architects Daughter;fontSource=https%3A%2F%2Ffonts.googleapis.com%2Fcss%3Ffamily%3DArchitects%2BDaughter;fontSize=16;" parent="1" source="SlRn_WwHkfLtaekDXYRm-7" target="SlRn_WwHkfLtaekDXYRm-9" edge="1">
          <mxGeometry relative="1" as="geometry" />
        </mxCell>
        <mxCell id="SlRn_WwHkfLtaekDXYRm-7" value="diagram.svg" style="rounded=0;whiteSpace=wrap;html=1;sketch=1;hachureGap=4;jiggle=2;curveFitting=1;fontFamily=Architects Daughter;fontSize=20;fontSource=https%3A%2F%2Ffonts.googleapis.com%2Fcss%3Ffamily%3DArchitects%2BDaughter;fontStyle=0" parent="1" vertex="1">
          <mxGeometry x="140" y="330" width="160" height="90" as="geometry" />
        </mxCell>
        <mxCell id="SlRn_WwHkfLtaekDXYRm-9" value="&lt;b&gt;Emacs&amp;nbsp;orgmode:&lt;br&gt;&lt;/b&gt;&lt;br&gt;&lt;font color=&quot;#00cc00&quot;&gt;#+chatu: :drawio diagram.drawio&lt;br&gt;&lt;/font&gt;[[file:./images/diagram.svg]]&lt;br&gt;&lt;br&gt;&lt;b&gt;Emacs markdown-mode:&lt;br&gt;&lt;br&gt;&lt;/b&gt;&lt;font color=&quot;#00cc00&quot;&gt;&amp;lt;!-- #+chatu: :drawio diagram.drawio --&amp;gt;&lt;br style=&quot;border-color: var(--border-color);&quot;&gt;&lt;/font&gt;![](./images/diagram.svg)" style="rounded=1;whiteSpace=wrap;html=1;sketch=1;hachureGap=4;jiggle=2;curveFitting=1;fontFamily=Architects Daughter;fontSource=https%3A%2F%2Ffonts.googleapis.com%2Fcss%3Ffamily%3DArchitects%2BDaughter;fontSize=20;" parent="1" vertex="1">
          <mxGeometry x="400" y="240" width="400" height="270" as="geometry" />
        </mxCell>
        <mxCell id="NlOz6iEBPjQe4jbIREbf-2" style="edgeStyle=orthogonalEdgeStyle;rounded=0;sketch=1;hachureGap=4;jiggle=2;curveFitting=1;orthogonalLoop=1;jettySize=auto;html=1;fontFamily=Architects Daughter;fontSource=https%3A%2F%2Ffonts.googleapis.com%2Fcss%3Ffamily%3DArchitects%2BDaughter;fontSize=16;" edge="1" parent="1" source="NlOz6iEBPjQe4jbIREbf-1" target="SlRn_WwHkfLtaekDXYRm-7">
          <mxGeometry relative="1" as="geometry" />
        </mxCell>
        <mxCell id="NlOz6iEBPjQe4jbIREbf-1" value="draw.io.exe" style="ellipse;whiteSpace=wrap;html=1;sketch=1;hachureGap=4;jiggle=2;curveFitting=1;fontFamily=Architects Daughter;fontSource=https%3A%2F%2Ffonts.googleapis.com%2Fcss%3Ffamily%3DArchitects%2BDaughter;fontSize=20;" vertex="1" parent="1">
          <mxGeometry x="140" y="191" width="160" height="100" as="geometry" />
        </mxCell>
      </root>
    </mxGraphModel>
  </diagram>
  <diagram id="QJ38TjwHdygvglSyfwmH" name="Page-2">
    <mxGraphModel dx="988" dy="578" grid="1" gridSize="10" guides="1" tooltips="1" connect="1" arrows="1" fold="1" page="1" pageScale="1" pageWidth="827" pageHeight="583" math="0" shadow="0">
      <root>
        <mxCell id="0" />
        <mxCell id="1" parent="0" />
        <mxCell id="KVLrHX9GkNbNuCH4x7Ym-2" value="open" style="edgeStyle=orthogonalEdgeStyle;rounded=0;sketch=1;hachureGap=4;jiggle=2;curveFitting=1;orthogonalLoop=1;jettySize=auto;html=1;fontFamily=Architects Daughter;fontSource=https%3A%2F%2Ffonts.googleapis.com%2Fcss%3Ffamily%3DArchitects%2BDaughter;fontSize=16;" parent="1" source="0PqRXt8_KsxW1oin-FXE-4" target="KVLrHX9GkNbNuCH4x7Ym-1" edge="1">
          <mxGeometry relative="1" as="geometry" />
        </mxCell>
        <mxCell id="0PqRXt8_KsxW1oin-FXE-4" value="draw.io.exe" style="ellipse;whiteSpace=wrap;html=1;sketch=1;hachureGap=4;jiggle=2;curveFitting=1;fontFamily=Architects Daughter;fontSource=https%3A%2F%2Ffonts.googleapis.com%2Fcss%3Ffamily%3DArchitects%2BDaughter;fontSize=20;" parent="1" vertex="1">
          <mxGeometry x="610" y="420" width="160" height="100" as="geometry" />
        </mxCell>
        <mxCell id="0PqRXt8_KsxW1oin-FXE-10" style="edgeStyle=orthogonalEdgeStyle;rounded=0;sketch=1;hachureGap=4;jiggle=2;curveFitting=1;orthogonalLoop=1;jettySize=auto;html=1;fontFamily=Architects Daughter;fontSource=https%3A%2F%2Ffonts.googleapis.com%2Fcss%3Ffamily%3DArchitects%2BDaughter;fontSize=16;exitX=0.5;exitY=1;exitDx=0;exitDy=0;entryX=0;entryY=0.5;entryDx=0;entryDy=0;" parent="1" source="RZJ8pFUaqzYHbWTxfaxI-1" target="RZJ8pFUaqzYHbWTxfaxI-2" edge="1">
          <mxGeometry relative="1" as="geometry">
            <mxPoint x="330" y="224" as="sourcePoint" />
          </mxGeometry>
        </mxCell>
        <mxCell id="KVLrHX9GkNbNuCH4x7Ym-1" value="diagram.drawio" style="rounded=0;whiteSpace=wrap;html=1;sketch=1;hachureGap=4;jiggle=2;curveFitting=1;fontFamily=Architects Daughter;fontSize=20;fontSource=https%3A%2F%2Ffonts.googleapis.com%2Fcss%3Ffamily%3DArchitects%2BDaughter;fontStyle=0" parent="1" vertex="1">
          <mxGeometry x="600" y="120" width="180" height="100" as="geometry" />
        </mxCell>
        <mxCell id="RZJ8pFUaqzYHbWTxfaxI-1" value="&lt;b&gt;Emacs&amp;nbsp;orgmode:&lt;br&gt;&lt;/b&gt;&lt;br&gt;&lt;font color=&quot;#00cc00&quot;&gt;#+chatu: :drawio diagram.drawio&lt;br&gt;&lt;/font&gt;[[file:./images/diagram.svg]]&lt;br&gt;&lt;br&gt;&lt;b&gt;Emacs markdown-mode:&lt;br&gt;&lt;br&gt;&lt;/b&gt;&lt;font color=&quot;#00cc00&quot;&gt;&amp;lt;!-- #+chatu: :drawio diagram.drawio --&amp;gt;&lt;br style=&quot;border-color: var(--border-color);&quot;&gt;&lt;/font&gt;![](./images/diagram.svg)" style="rounded=1;whiteSpace=wrap;html=1;sketch=1;hachureGap=4;jiggle=2;curveFitting=1;fontFamily=Architects Daughter;fontSource=https%3A%2F%2Ffonts.googleapis.com%2Fcss%3Ffamily%3DArchitects%2BDaughter;fontSize=20;" vertex="1" parent="1">
          <mxGeometry x="20" y="90" width="400" height="270" as="geometry" />
        </mxCell>
        <mxCell id="RZJ8pFUaqzYHbWTxfaxI-3" style="edgeStyle=orthogonalEdgeStyle;rounded=0;sketch=1;hachureGap=4;jiggle=2;curveFitting=1;orthogonalLoop=1;jettySize=auto;html=1;fontFamily=Architects Daughter;fontSource=https%3A%2F%2Ffonts.googleapis.com%2Fcss%3Ffamily%3DArchitects%2BDaughter;fontSize=16;" edge="1" parent="1" source="RZJ8pFUaqzYHbWTxfaxI-2" target="0PqRXt8_KsxW1oin-FXE-4">
          <mxGeometry relative="1" as="geometry" />
        </mxCell>
        <mxCell id="RZJ8pFUaqzYHbWTxfaxI-2" value="chatu-open" style="ellipse;whiteSpace=wrap;html=1;sketch=1;hachureGap=4;jiggle=2;curveFitting=1;fontFamily=Architects Daughter;fontSource=https%3A%2F%2Ffonts.googleapis.com%2Fcss%3Ffamily%3DArchitects%2BDaughter;fontSize=20;" vertex="1" parent="1">
          <mxGeometry x="350" y="420" width="160" height="100" as="geometry" />
        </mxCell>
      </root>
    </mxGraphModel>
  </diagram>
</mxfile>
